<?xml version="1.0" encoding="UTF-8" standalone="no"?>
<!-- Created with Inkscape (http://www.inkscape.org/) -->

<svg
   xmlns:dc="http://purl.org/dc/elements/1.1/"
   xmlns:cc="http://creativecommons.org/ns#"
   xmlns:rdf="http://www.w3.org/1999/02/22-rdf-syntax-ns#"
   xmlns:svg="http://www.w3.org/2000/svg"
   xmlns="http://www.w3.org/2000/svg"
   xmlns:sodipodi="http://sodipodi.sourceforge.net/DTD/sodipodi-0.dtd"
   xmlns:inkscape="http://www.inkscape.org/namespaces/inkscape"
   width="210mm"
   height="297mm"
   viewBox="0 0 210 297"
   version="1.1"
   id="svg8"
   sodipodi:docname="queueBrain.svg"
   inkscape:version="0.92.1 r15371">
  <defs
     id="defs2">
    <marker
       inkscape:stockid="DotM"
       orient="auto"
       refY="0.0"
       refX="0.0"
       id="DotM"
       style="overflow:visible"
       inkscape:isstock="true">
      <path
         id="path4549"
         d="M -2.5,-1.0 C -2.5,1.7600000 -4.7400000,4.0 -7.5,4.0 C -10.260000,4.0 -12.5,1.7600000 -12.5,-1.0 C -12.5,-3.7600000 -10.260000,-6.0 -7.5,-6.0 C -4.7400000,-6.0 -2.5,-3.7600000 -2.5,-1.0 z "
         style="fill-rule:evenodd;stroke:#000000;stroke-width:1pt;stroke-opacity:1;fill:#000000;fill-opacity:1"
         transform="scale(0.4) translate(7.4, 1)" />
    </marker>
    <marker
       inkscape:stockid="DotS"
       orient="auto"
       refY="0.0"
       refX="0.0"
       id="DotS"
       style="overflow:visible"
       inkscape:isstock="true">
      <path
         id="path4552"
         d="M -2.5,-1.0 C -2.5,1.7600000 -4.7400000,4.0 -7.5,4.0 C -10.260000,4.0 -12.5,1.7600000 -12.5,-1.0 C -12.5,-3.7600000 -10.260000,-6.0 -7.5,-6.0 C -4.7400000,-6.0 -2.5,-3.7600000 -2.5,-1.0 z "
         style="fill-rule:evenodd;stroke:#000000;stroke-width:1pt;stroke-opacity:1;fill:#000000;fill-opacity:1"
         transform="scale(0.2) translate(7.4, 1)" />
    </marker>
    <marker
       inkscape:stockid="ExperimentalArrow"
       orient="auto-start-reverse"
       refY="3.0"
       refX="5.0"
       id="ExperimentalArrow"
       inkscape:isstock="true">
      <path
         id="path4738"
         d="m 10,3 -10,3 0,-6 z"
         style="fill:context-stroke;stroke:#000000;stroke-opacity:1" />
    </marker>
    <marker
       inkscape:stockid="TriangleOutM"
       orient="auto"
       refY="0.0"
       refX="0.0"
       id="TriangleOutM"
       style="overflow:visible"
       inkscape:isstock="true">
      <path
         id="path4630"
         d="M 5.77,0.0 L -2.88,5.0 L -2.88,-5.0 L 5.77,0.0 z "
         style="fill-rule:evenodd;stroke:#000000;stroke-width:1pt;stroke-opacity:1;fill:#000000;fill-opacity:1"
         transform="scale(0.4)" />
    </marker>
    <marker
       inkscape:stockid="Arrow2Mend"
       orient="auto"
       refY="0.0"
       refX="0.0"
       id="Arrow2Mend"
       style="overflow:visible;"
       inkscape:isstock="true">
      <path
         id="path4512"
         style="fill-rule:evenodd;stroke-width:0.625;stroke-linejoin:round;stroke:#000000;stroke-opacity:1;fill:#000000;fill-opacity:1"
         d="M 8.7185878,4.0337352 L -2.2072895,0.016013256 L 8.7185884,-4.0017078 C 6.9730900,-1.6296469 6.9831476,1.6157441 8.7185878,4.0337352 z "
         transform="scale(0.6) rotate(180) translate(0,0)" />
    </marker>
    <marker
       inkscape:stockid="Arrow1Mend"
       orient="auto"
       refY="0.0"
       refX="0.0"
       id="Arrow1Mend"
       style="overflow:visible;"
       inkscape:isstock="true">
      <path
         id="path4494"
         d="M 0.0,0.0 L 5.0,-5.0 L -12.5,0.0 L 5.0,5.0 L 0.0,0.0 z "
         style="fill-rule:evenodd;stroke:#000000;stroke-width:1pt;stroke-opacity:1;fill:#000000;fill-opacity:1"
         transform="scale(0.4) rotate(180) translate(10,0)" />
    </marker>
    <marker
       inkscape:stockid="Arrow2Send"
       orient="auto"
       refY="0.0"
       refX="0.0"
       id="Arrow2Send"
       style="overflow:visible;"
       inkscape:isstock="true">
      <path
         id="path4518"
         style="fill-rule:evenodd;stroke-width:0.625;stroke-linejoin:round;stroke:#000000;stroke-opacity:1;fill:#000000;fill-opacity:1"
         d="M 8.7185878,4.0337352 L -2.2072895,0.016013256 L 8.7185884,-4.0017078 C 6.9730900,-1.6296469 6.9831476,1.6157441 8.7185878,4.0337352 z "
         transform="scale(0.3) rotate(180) translate(-2.3,0)" />
    </marker>
    <marker
       inkscape:stockid="Arrow2Sstart"
       orient="auto"
       refY="0.0"
       refX="0.0"
       id="Arrow2Sstart"
       style="overflow:visible"
       inkscape:isstock="true">
      <path
         id="path4515"
         style="fill-rule:evenodd;stroke-width:0.625;stroke-linejoin:round;stroke:#000000;stroke-opacity:1;fill:#000000;fill-opacity:1"
         d="M 8.7185878,4.0337352 L -2.2072895,0.016013256 L 8.7185884,-4.0017078 C 6.9730900,-1.6296469 6.9831476,1.6157441 8.7185878,4.0337352 z "
         transform="scale(0.3) translate(-2.3,0)" />
    </marker>
  </defs>
  <sodipodi:namedview
     id="base"
     pagecolor="#ffffff"
     bordercolor="#666666"
     borderopacity="1.0"
     inkscape:pageopacity="0.0"
     inkscape:pageshadow="2"
     inkscape:zoom="0.73071669"
     inkscape:cx="302.5088"
     inkscape:cy="653.55973"
     inkscape:document-units="mm"
     inkscape:current-layer="g8338"
     showgrid="true"
     gridtolerance="10"
     inkscape:window-width="1366"
     inkscape:window-height="716"
     inkscape:window-x="-8"
     inkscape:window-y="-8"
     inkscape:window-maximized="1"
     inkscape:snap-bbox="true"
     inkscape:bbox-nodes="true">
    <inkscape:grid
       type="xygrid"
       id="grid10"
       units="mm"
       spacingx="1"
       spacingy="1"
       originy="2" />
  </sodipodi:namedview>
  <metadata
     id="metadata5">
    <rdf:RDF>
      <cc:Work
         rdf:about="">
        <dc:format>image/svg+xml</dc:format>
        <dc:type
           rdf:resource="http://purl.org/dc/dcmitype/StillImage" />
        <dc:title />
      </cc:Work>
    </rdf:RDF>
  </metadata>
  <g
     inkscape:groupmode="layer"
     id="layer2"
     inkscape:label="Background" />
  <g
     inkscape:label="Layer 1"
     inkscape:groupmode="layer"
     id="layer1"
     style="display:inline">
    <ellipse
       style="opacity:1;fill:#ffffff;fill-opacity:1;stroke:none;stroke-width:2.15782452;stroke-linejoin:bevel;stroke-miterlimit:4;stroke-dasharray:none;stroke-dashoffset:0;stroke-opacity:1"
       id="path8178-6"
       cx="132.5"
       cy="108.41784"
       rx="71.421089"
       ry="67.868103"
       inkscape:export-xdpi="96"
       inkscape:export-ydpi="96" />
    <g
       id="g8338"
       transform="translate(-14.76566,44.574994)"
       inkscape:export-xdpi="96"
       inkscape:export-ydpi="96">
      <path
         inkscape:export-ydpi="96"
         inkscape:export-xdpi="96"
         sodipodi:nodetypes="caaaaaaaazsaaaaaaaaaaaaaaaaaaac"
         inkscape:connector-curvature="0"
         id="path4483"
         d="m 196.29483,102.42501 c 0,0 -16.57421,-19.228174 -26.57837,-26.894754 -4.51167,-3.45747 -9.15601,-8.78425 -14.82847,-8.42021 -4.41376,0.28326 -11.30536,3.60574 -10.60594,7.97293 1.25343,7.82652 16.16663,2.89697 22.51865,7.638 3.94951,2.94784 11.57575,8.19327 8.53566,12.07223 -4.22962,5.396734 -12.41124,-6.23629 -19.14714,-7.51774 -5.56608,-1.0589 -13.19232,4.16631 -16.99769,-0.0315 -4.90548,-5.41136 -2.44713,-16.09728 2.1033,-21.81044 3.28358,-4.12261 9.58744,-5.18156 15,-5 5.41256,0.18157 11.12431,1.91262 15.43707,6.3241 4.56293,4.66738 9.11258,16.55027 15.54491,13.90974 11.97256,-4.91485 14.98003,-35.72272 2.3975,-38.7522 -5.78882,-1.39376 -1.83892,13.65112 -7.13261,16.37689 -5.55889,2.86234 -16.64667,2.12382 -18.34929,-3.89243 -2.15841,-7.62679 19.65611,-8.84789 17.22578,-16.39243 -1.95535,-6.070039 -13.50196,-5.931724 -18.95146,-2.619368 -4.88331,2.968208 -1.6012,12.210958 -5.73571,16.155918 -5.37793,5.13138 -15.90228,1.40054 -21.34141,6.46699 -6.62594,6.17195 -1.21734,22.2071 -9.70048,25.37452 -8.55067,3.19263 -21.33342,-4.22697 -24.14757,-12.90957 -2.071459,-6.39113 2.16559,-17.20432 8.82098,-18.12257 3.33415,-0.46002 5.89791,4.27734 6.71239,7.54304 1.09663,4.39706 -6.17429,9.78308 -3.20999,13.21087 2.01146,2.32597 6.84397,1.1319 9.18487,-0.86217 4.13286,-3.52056 0.92167,-11.35253 4.08101,-15.76766 6.24661,-8.72955 29.56884,-7.2999 26.90363,-17.69806 -2.22047,-8.663039 -23.89382,-10.621898 -26.74337,-2.144942 -1.41746,4.216712 12.04101,2.808352 11.24629,7.185362 -0.84464,4.65194 -9.18919,3.58203 -13.87439,2.94732 -3.11406,-0.42186 -8.36815,-4.34187 -8.36815,-4.34187"
         style="fill:none;stroke:#000000;stroke-width:2.00000006;stroke-linecap:butt;stroke-linejoin:miter;stroke-miterlimit:4;stroke-dasharray:4.00000011,2.00000006;stroke-dashoffset:0;stroke-opacity:1;marker-start:url(#DotM)" />
      <path
         inkscape:export-ydpi="96"
         inkscape:export-xdpi="96"
         sodipodi:nodetypes="aaaaaaaaaaa"
         inkscape:connector-curvature="0"
         id="path5457"
         d="m 123.94166,30.529167 c -11.20111,4.771218 -22.28282,12.895666 -27.71197,23.793086 -2.945529,5.91228 -3.940385,13.74443 -1.249229,19.77675 3.570519,8.00343 12.529199,12.95778 20.632749,16.29483 10.62857,4.37686 23.00304,1.57808 34.26428,3.88195 8.99347,1.83992 17.45798,10.042597 26.38314,7.895637 10.29074,-2.475447 17.97435,-12.601327 22.95173,-21.942247 4.44661,-8.34484 5.89011,-18.55511 4.83533,-27.95172 -0.62972,-5.60994 -2.55647,-11.60739 -6.51472,-15.632334 -6.31724,-6.42367 -15.87397,-9.396555 -24.77149,-10.812615 -16.14521,-2.569547 -33.77907,-1.710083 -48.81982,4.696663 z"
         style="fill:none;stroke:#000000;stroke-width:2;stroke-linecap:butt;stroke-linejoin:miter;stroke-miterlimit:4;stroke-dasharray:none;stroke-opacity:1" />
      <path
         inkscape:export-ydpi="96"
         inkscape:export-xdpi="96"
         inkscape:connector-curvature="0"
         id="path7019"
         d="m 114.76566,40.425006 -14.999997,-20"
         style="fill:none;stroke:#000000;stroke-width:2;stroke-linecap:butt;stroke-linejoin:miter;stroke-miterlimit:4;stroke-dasharray:none;stroke-opacity:1;marker-end:url(#Arrow2Mend)" />
    </g>
  </g>
</svg>
